<?xml version="1.0" ?><svg id="Layer_1" style="enable-background:new 0 0 64 64;" version="1.1" viewBox="0 0 64 64" xml:space="preserve" xmlns="http://www.w3.org/2000/svg" xmlns:xlink="http://www.w3.org/1999/xlink"><style type="text/css">
	.st0{fill:url(#SVGID_1_);}
	.st1{fill:url(#SVGID_2_);}
	.st2{fill:url(#SVGID_3_);}
	.st3{fill:url(#SVGID_4_);}
	.st4{fill:#FFFFFF;}
	.st5{fill:url(#SVGID_5_);}
	.st6{fill:url(#SVGID_6_);}
	.st7{fill:url(#SVGID_7_);}
	.st8{fill:url(#SVGID_8_);}
	.st9{fill:url(#SVGID_9_);}
	.st10{fill:#FFBF0B;}
	.st11{fill:#1A1A54;}
	.st12{fill:#DC2863;}
	.st13{fill:none;stroke:#1A1A54;stroke-width:3;stroke-linecap:round;stroke-linejoin:round;stroke-miterlimit:10;}
	.st14{fill:#0B85FF;}
	.st15{opacity:0.5;fill:#FFFFFF;}
	.st16{fill:#00AF64;}
	.st17{fill:#00D17C;}
	.st18{fill:none;stroke:#00D17C;stroke-width:3;stroke-linecap:round;stroke-linejoin:round;stroke-miterlimit:10;}
</style><path class="st12" d="M60.8,33.7c4.5-9,4.7-18.3-2.5-25.5C51.2,0.9,37,2.4,32.2,12.5C27.5,2.4,14,1.6,6.1,8.2  C-0.2,13.5-2,23.5,2.5,32.8c7.9,16.3,22,24.4,27.5,27c1.4,0.7,3,0.6,4.4-0.1C39.7,57,53.2,48.9,60.8,33.7z"/><circle class="st4" cx="44.5" cy="24.5" r="8.5"/><circle class="st11" cx="44.5" cy="24.5" r="5.5"/><circle class="st4" cx="19.5" cy="24.5" r="8.5"/><circle class="st11" cx="19.5" cy="24.5" r="5.5"/><ellipse class="st12" cx="44.5" cy="32" rx="9.4" ry="5"/><path class="st15" d="M40,40v-2.6L36,38v1.4L32,40l0.1,9.9c0,1.1,0.9,2,2,2h0c1.1,0,2-0.9,2-2v-3c0-1.1,0.9-2,2-2h0c1.1,0,2,0.9,2,2  v0c0,1.1,0.9,2,2,2h0c1.1,0,2-0.9,2-2L44,39.4L40,40z"/><ellipse class="st12" cx="19.5" cy="32" rx="9.4" ry="5"/><g><path class="st11" d="M34.2,44.1c-1.1,0-2-0.1-2.8-0.3c-2.4-0.6-3.9-3-3.3-5.3c0.6-2.4,2.9-3.9,5.3-3.3c0.2,0,2.4,0.4,3.8-1   c1.7-1.8,4.5-1.8,6.3-0.1c1.8,1.7,1.8,4.5,0.1,6.3C40.7,43.2,37,44.1,34.2,44.1z"/></g><path class="st12" d="M32,43.9c0.6,0.1,1.3,0.2,2.1,0.2c2.8,0,6.5-0.8,9.4-3.8c0.1-0.2,0.3-0.3,0.4-0.5c-1.2-0.6-2.8-1-4.4-1  C35.9,38.8,32.8,41.1,32,43.9z"/></svg>